# xmcd
#
# Track frame offsets: 
#        150
#        30628
#        51498
#        75135
#        102648
#        124220
#        143250
#        161772
#        180600
#        210825
#        233700
#        253359
#
# Disc length: 3543 seconds
#
# Revision: 0
# Processed by: cddbd v1.5.1PL0 Copyright (c) Steve Scherf et al.
# Submitted via: ExactAudioCopy v0.95a5
#
DISCID=9b0dd50c
DTITLE=Sade - sade lovers live concert at anaheim cd1
DYEAR=1900
DGENRE=Soul
TTITLE0=cherish the day
TTITLE1=your love is king
TTITLE2=somebody already broke my heart
TTITLE3=cherry pie
TTITLE4=pearls
TTITLE5=every word
TTITLE6=smooth operator
TTITLE7=redeye
TTITLE8=jezebel
TTITLE9=kiss of life
TTITLE10=slave song
TTITLE11=the sweetest gift
EXTD=
EXTT0=
EXTT1=
EXTT2=
EXTT3=
EXTT4=
EXTT5=
EXTT6=
EXTT7=
EXTT8=
EXTT9=
EXTT10=
EXTT11=
PLAYORDER=
